<svg width="17" height="20" viewBox="0 0 17 20" fill="none" xmlns="http://www.w3.org/2000/svg">
<path d="M12.5 5H11.75C11.75 6.79493 10.2949 8.25 8.5 8.25V9V9.75C11.1234 9.75 13.25 7.62335 13.25 5H12.5ZM8.5 9V8.25C6.70507 8.25 5.25 6.79493 5.25 5H4.5H3.75C3.75 7.62335 5.87665 9.75 8.5 9.75V9ZM4.5 5H5.25C5.25 3.20507 6.70507 1.75 8.5 1.75V1V0.25C5.87665 0.25 3.75 2.37665 3.75 5H4.5ZM8.5 1V1.75C10.2949 1.75 11.75 3.20507 11.75 5H12.5H13.25C13.25 2.37665 11.1234 0.25 8.5 0.25V1ZM15.5 15.5H14.75C14.75 16.0294 14.3014 16.7105 13.1143 17.3041C11.9722 17.8751 10.3418 18.25 8.5 18.25V19V19.75C10.5242 19.75 12.3938 19.3414 13.7852 18.6457C15.1316 17.9725 16.25 16.9036 16.25 15.5H15.5ZM8.5 19V18.25C6.65819 18.25 5.02782 17.8751 3.88566 17.3041C2.69864 16.7105 2.25 16.0294 2.25 15.5H1.5H0.75C0.75 16.9036 1.86836 17.9725 3.21484 18.6457C4.60618 19.3414 6.47582 19.75 8.5 19.75V19ZM1.5 15.5H2.25C2.25 14.9706 2.69864 14.2895 3.88566 13.6959C5.02782 13.1249 6.65819 12.75 8.5 12.75V12V11.25C6.47582 11.25 4.60618 11.6586 3.21484 12.3543C1.86836 13.0275 0.75 14.0964 0.75 15.5H1.5ZM8.5 12V12.75C10.3418 12.75 11.9722 13.1249 13.1143 13.6959C14.3014 14.2895 14.75 14.9706 14.75 15.5H15.5H16.25C16.25 14.0964 15.1316 13.0275 13.7852 12.3543C12.3938 11.6586 10.5242 11.25 8.5 11.25V12Z" fill="#505050"/>
</svg>
