<svg width="21" height="18" viewBox="0 0 21 18" fill="none" xmlns="http://www.w3.org/2000/svg">
<path d="M2.5 18C1.95 18 1.47917 17.8042 1.0875 17.4125C0.695833 17.0208 0.5 16.55 0.5 16V9H2.5V16H11.5V18H2.5ZM6.5 14C5.95 14 5.47917 13.8042 5.0875 13.4125C4.69583 13.0208 4.5 12.55 4.5 12V5H6.5V12H15.5V14H6.5ZM10.5 10C9.95 10 9.47917 9.80417 9.0875 9.4125C8.69583 9.02083 8.5 8.55 8.5 8V2C8.5 1.45 8.69583 0.979167 9.0875 0.5875C9.47917 0.195833 9.95 0 10.5 0H18.5C19.05 0 19.5208 0.195833 19.9125 0.5875C20.3042 0.979167 20.5 1.45 20.5 2V8C20.5 8.55 20.3042 9.02083 19.9125 9.4125C19.5208 9.80417 19.05 10 18.5 10H10.5ZM10.5 8H18.5V4H10.5V8Z" fill="#505050" fill-opacity="0.8"/>
</svg>
