<?xml version="1.0" encoding="UTF-8"?>
<svg version="1.1" xmlns="http://www.w3.org/2000/svg" width="500" height="500">
<path d="M0 0 C10.56459387 9.09757216 19.27840682 19.17298782 27.02539062 30.74414062 C27.66992188 31.68128906 28.31445312 32.6184375 28.97851562 33.58398438 C44.49538865 57.94267918 50.2852587 90.97190854 44.89282227 119.19262695 C44.08610597 122.75825699 43.08512901 126.24675342 42.02539062 129.74414062 C41.8376709 130.41896484 41.64995117 131.09378906 41.45654297 131.7890625 C37.46821761 146.09155582 30.8900342 159.37726634 24.47900391 172.71533203 C23.33100887 175.10734185 22.2004191 177.50532296 21.08398438 179.91210938 C13.40278008 196.02531236 3.12756201 211.05501638 -6.97460938 225.74414062 C-7.41562988 226.38706055 -7.85665039 227.02998047 -8.31103516 227.69238281 C-20.27263421 245.059664 -32.89113744 262.03254909 -46.97460938 277.74414062 C-47.47976074 278.31100586 -47.98491211 278.87787109 -48.50537109 279.46191406 C-70.61634649 304.18354957 -70.61634649 304.18354957 -82.81835938 304.87304688 C-93.7688839 304.21839595 -104.66002195 292.3402956 -111.74414062 284.88085938 C-113.52091758 282.86199116 -115.24577986 280.80424286 -116.97460938 278.74414062 C-117.86468539 277.72559298 -118.75678222 276.70880934 -119.65039062 275.69335938 C-126.6940261 267.65213745 -133.21681083 259.31833005 -139.53515625 250.69824219 C-140.89191571 248.85639979 -142.26559911 247.02886955 -143.64648438 245.20507812 C-151.3753009 234.93337936 -158.33404587 224.17855651 -165.28417969 213.37011719 C-166.74421919 211.10203734 -168.21198817 208.83938471 -169.68554688 206.58007812 C-171.80954439 203.31866327 -173.90105747 200.03793089 -175.97460938 196.74414062 C-176.53921875 195.85210937 -177.10382813 194.96007812 -177.68554688 194.04101562 C-183.96284695 183.72620329 -188.9283078 172.69672443 -193.97460938 161.74414062 C-194.39597168 160.8335791 -194.81733398 159.92301758 -195.25146484 158.98486328 C-210.82395181 125.02723751 -217.02779617 89.00777673 -203.76757812 53.12695312 C-197.19097911 36.48700772 -187.31686508 21.64436449 -174.97460938 8.74414062 C-174.07548828 7.75027344 -174.07548828 7.75027344 -173.15820312 6.73632812 C-128.62040819 -40.78347899 -48.45681829 -40.46394105 0 0 Z " fill="#7D4110" transform="translate(320.974609375,124.255859375)"/>
<path d="M0 0 C10.09953621 7.03691239 18.30167649 17.2774511 25.76953125 26.9296875 C26.56746094 27.93386719 27.36539063 28.93804687 28.1875 29.97265625 C47.08930658 53.91101745 66.21846447 82.07683778 62.76953125 113.9296875 C61.26127567 120.26095246 57.5215709 125.53661949 52.76953125 129.9296875 C49.91147745 131.60021581 46.93559231 132.73195238 43.83203125 133.8671875 C37.69689009 136.26492367 31.87671006 138.80868004 26.14453125 142.0546875 C15.63065537 147.86684625 4.59743786 151.69501271 -7.23046875 153.8046875 C-7.88055908 153.92497314 -8.53064941 154.04525879 -9.20043945 154.16918945 C-24.47242947 156.54034268 -39.71448713 154.35752522 -54.85546875 152.1796875 C-56.83943213 151.90276879 -58.82356564 151.62706644 -60.80786133 151.35253906 C-63.78962053 150.93970323 -66.77121967 150.52594147 -69.75221252 150.10760498 C-75.73114881 149.26892003 -81.71303486 148.46580029 -87.703125 147.7109375 C-88.41676208 147.62084412 -89.13039917 147.53075073 -89.86566162 147.43792725 C-93.11453414 147.02907973 -96.36392219 146.62465771 -99.61376953 146.22363281 C-102.82363075 145.81824378 -106.0273391 145.38496394 -109.23046875 144.9296875 C-110.19718506 144.80021729 -111.16390137 144.67074707 -112.15991211 144.53735352 C-118.6256986 143.50439259 -118.6256986 143.50439259 -121.2734375 140.98828125 C-128.12143515 125.30566547 -132.12025497 108.5556399 -134.66796875 91.6796875 C-134.83184082 90.59872803 -134.99571289 89.51776855 -135.16455078 88.40405273 C-138.13510487 66.80530335 -138.13510487 66.80530335 -133.6484375 60.51171875 C-121.40883702 46.85596615 -104.2138684 37.01964325 -88.73388672 27.47412109 C-86.11494627 25.85841822 -83.50236274 24.2327859 -80.890625 22.60546875 C-75.68088777 19.36335357 -70.45953777 16.14051936 -65.23046875 12.9296875 C-64.49715332 12.47899902 -63.76383789 12.02831055 -63.00830078 11.56396484 C-43.45684808 -0.41947878 -22.51144781 -11.98247143 0 0 Z " fill="#8E888C" transform="translate(274.23046875,143.0703125)"/>
<path d="M0 0 C12.56156354 -0.48108116 23.90406559 1.27229268 33.42578125 10.0546875 C40.5192834 16.89224842 46.97173081 24.20843453 53 32 C53.79792969 33.00417969 54.59585938 34.00835937 55.41796875 35.04296875 C74.31977533 58.98132995 93.44893322 87.14715028 90 119 C88.49174442 125.33126496 84.75203965 130.60693199 80 135 C77.1419462 136.67052831 74.16606106 137.80226488 71.0625 138.9375 C64.92735884 141.33523617 59.10717881 143.87899254 53.375 147.125 C42.86112412 152.93715875 31.82790661 156.76532521 20 158.875 C19.34990967 158.99528564 18.69981934 159.11557129 18.0300293 159.23950195 C2.75768636 161.61070998 -12.48364401 159.4270792 -27.625 157.25 C-29.60163469 156.97451213 -31.57844398 156.7002743 -33.55541992 156.42724609 C-37.50060047 155.88180267 -41.44508275 155.33168002 -45.38916016 154.77832031 C-53.35576394 153.66630491 -61.33333046 152.64212067 -69.3125 151.625 C-71.80859473 151.3046951 -74.30468859 150.98438348 -76.80078125 150.6640625 C-78.53383416 150.44255172 -80.26689831 150.22112877 -82 150 C-79.74218892 148.49479261 -77.77047474 147.3552738 -75.33984375 146.23046875 C-74.6334375 145.90111328 -73.92703125 145.57175781 -73.19921875 145.23242188 C-72.07966797 144.71518555 -72.07966797 144.71518555 -70.9375 144.1875 C-66.03732504 141.92302521 -61.22952942 139.60759205 -56.5 137 C-50.67953613 134.06506321 -45.81716182 134.43656764 -39.5625 135.6875 C-28.70070628 139.68921348 -11.36014758 147.10838168 -4.25 156.25 C-0.59153136 159.09547561 3.53132827 158.30700798 8 158 C7.690625 157.319375 7.38125 156.63875 7.0625 155.9375 C5.15736814 150.67037074 4.94694856 145.409875 4.86132812 139.84643555 C4.60713526 127.95656442 1.85413363 116.98905277 -1.3515625 105.58276367 C-2.66918916 100.33458128 -3.12774474 95.39239436 -3.1328125 89.984375 C-3.13376923 89.32850403 -3.13472595 88.67263306 -3.13571167 87.99688721 C-3.13638859 86.61527408 -3.13456854 85.23365769 -3.13037109 83.85205078 C-3.12505054 81.76978143 -3.13031482 79.68773118 -3.13671875 77.60546875 C-3.13985717 71.24860234 -2.98127765 65.0060237 -2.24072266 58.69091797 C-1.92993602 55.2167899 -1.85461082 51.7471214 -1.7890625 48.26171875 C-1.7676268 47.22088638 -1.7676268 47.22088638 -1.74575806 46.1590271 C-1.68828948 43.28292428 -1.63379511 40.4069892 -1.59863281 37.53051758 C-1.23842312 10.23842312 -1.23842312 10.23842312 7 2 C4.69 1.67 2.38 1.34 0 1 C0 0.67 0 0.34 0 0 Z " fill="#7C7479" transform="translate(247,138)"/>
<path d="M0 0 C10.56459387 9.09757216 19.27840682 19.17298782 27.02539062 30.74414062 C27.66992188 31.68128906 28.31445312 32.6184375 28.97851562 33.58398438 C44.49538865 57.94267918 50.2852587 90.97190854 44.89282227 119.19262695 C44.08610597 122.75825699 43.08512901 126.24675342 42.02539062 129.74414062 C41.8376709 130.41896484 41.64995117 131.09378906 41.45654297 131.7890625 C37.46821761 146.09155582 30.8900342 159.37726634 24.47900391 172.71533203 C23.33100887 175.10734185 22.2004191 177.50532296 21.08398438 179.91210938 C13.40278008 196.02531236 3.12756201 211.05501638 -6.97460938 225.74414062 C-7.41562988 226.38706055 -7.85665039 227.02998047 -8.31103516 227.69238281 C-20.27263421 245.059664 -32.89113744 262.03254909 -46.97460938 277.74414062 C-47.47976074 278.31100586 -47.98491211 278.87787109 -48.50537109 279.46191406 C-70.61634649 304.18354957 -70.61634649 304.18354957 -82.81835938 304.87304688 C-93.7688839 304.21839595 -104.66002195 292.3402956 -111.74414062 284.88085938 C-113.52091758 282.86199116 -115.24577986 280.80424286 -116.97460938 278.74414062 C-117.86468539 277.72559298 -118.75678222 276.70880934 -119.65039062 275.69335938 C-126.6940261 267.65213745 -133.21681083 259.31833005 -139.53515625 250.69824219 C-140.89191571 248.85639979 -142.26559911 247.02886955 -143.64648438 245.20507812 C-151.3753009 234.93337936 -158.33404587 224.17855651 -165.28417969 213.37011719 C-166.74421919 211.10203734 -168.21198817 208.83938471 -169.68554688 206.58007812 C-171.80954439 203.31866327 -173.90105747 200.03793089 -175.97460938 196.74414062 C-176.53921875 195.85210937 -177.10382813 194.96007812 -177.68554688 194.04101562 C-183.96284695 183.72620329 -188.9283078 172.69672443 -193.97460938 161.74414062 C-194.39597168 160.8335791 -194.81733398 159.92301758 -195.25146484 158.98486328 C-210.82395181 125.02723751 -217.02779617 89.00777673 -203.76757812 53.12695312 C-197.19097911 36.48700772 -187.31686508 21.64436449 -174.97460938 8.74414062 C-174.07548828 7.75027344 -174.07548828 7.75027344 -173.15820312 6.73632812 C-128.62040819 -40.78347899 -48.45681829 -40.46394105 0 0 Z M-101.96289062 -18.76196289 C-105.13661558 -17.96352456 -108.37047357 -17.52733472 -111.59960938 -17.00585938 C-139.19052245 -12.06425192 -165.25367535 6.83316504 -181.2956543 29.45214844 C-197.04039844 52.97173084 -206.46965362 84.78551728 -201.06835938 113.04882812 C-198.03706859 126.9705482 -193.813187 140.90736572 -187.10742188 153.51757812 C-185.97470935 155.74394411 -185.09352081 157.96605936 -184.22460938 160.30664062 C-167.4849153 202.70952329 -136.19809906 242.21958047 -106.37597656 276.13867188 C-105.14694405 277.54670633 -103.93797871 278.97220483 -102.73242188 280.40039062 C-94.41843923 290.57695127 -94.41843923 290.57695127 -82.91210938 295.68164062 C-77.55509564 295.07803344 -73.83502273 291.19819468 -69.97460938 287.74414062 C-69.28109375 287.16921875 -68.58757812 286.59429687 -67.87304688 286.00195312 C-63.05758047 281.96737317 -59.01736966 277.53613833 -54.97460938 272.74414062 C-54.093362 271.73495927 -53.21041775 270.72725823 -52.32617188 269.72070312 C-45.06742857 261.42117518 -38.27372872 252.82921042 -31.66748047 244.00341797 C-29.94054294 241.69867613 -28.20167603 239.40323326 -26.46289062 237.10742188 C-18.3594014 226.33770962 -10.95097758 215.2732467 -3.97460938 203.74414062 C-3.45012207 202.87917969 -2.92563477 202.01421875 -2.38525391 201.12304688 C14.45287036 173.46554456 14.45287036 173.46554456 27.02539062 143.74414062 C27.72943687 141.84671104 28.43738836 139.95072297 29.15039062 138.05664062 C34.89139441 122.07751343 37.569866 107.65288785 37.02539062 90.74414062 C36.99574219 89.76445312 36.96609375 88.78476563 36.93554688 87.77539062 C35.42240117 63.26981135 24.10830272 38.92863107 8.02539062 20.74414062 C7.44917969 20.01324219 6.87296875 19.28234375 6.27929688 18.52929688 C-10.94390992 -2.68324958 -40.17233571 -16.77969591 -66.97460938 -20.25585938 C-78.50807279 -21.04835645 -90.68293451 -21.63737218 -101.96289062 -18.76196289 Z " fill="#FCFAF9" transform="translate(320.974609375,124.255859375)"/>
<path d="M0 0 C-0.32613281 0.49886719 -0.65226562 0.99773437 -0.98828125 1.51171875 C-4.96778962 8.050321 -6.56807436 14.53076626 -8 22 C-8.17112305 22.75966064 -8.34224609 23.51932129 -8.51855469 24.30200195 C-9.05197318 27.2912554 -9.19506309 30.1484849 -9.28125 33.18359375 C-9.31863281 34.35857422 -9.35601562 35.53355469 -9.39453125 36.74414062 C-9.42933594 37.96294922 -9.46414062 39.18175781 -9.5 40.4375 C-9.5691966 42.85297402 -9.64199151 45.2683482 -9.71875 47.68359375 C-9.74904297 48.75150146 -9.77933594 49.81940918 -9.81054688 50.91967773 C-10.00033017 54.00536828 -10.43745317 56.96207631 -11 60 C-13.10254029 56.79612908 -13.18531886 53.97795514 -13.22558594 50.21166992 C-13.32238348 41.44278081 -14.68614085 34.27716552 -20 27 C-23.12639075 23.97208991 -23.12639075 23.97208991 -27.140625 22.65234375 C-35.374616 23.76545735 -41.65806982 27.70927198 -48.1015625 32.7890625 C-50.29767035 34.18987203 -52.60667249 35.12311579 -55.00634766 36.12060547 C-65.3274348 40.67320844 -75.4827374 46.60798551 -84 54 C-84.96164063 54.74894531 -85.92328125 55.49789062 -86.9140625 56.26953125 C-90.27081281 59.06699823 -92.6607417 62.29133099 -95.125 65.875 C-95.54136719 66.46152344 -95.95773438 67.04804688 -96.38671875 67.65234375 C-98.47493197 70.63082969 -100.37532402 73.62606902 -102.1171875 76.8203125 C-104 80 -104 80 -107 82 C-106.35014905 77.28629244 -104.48438608 73.42313556 -102.4375 69.1875 C-101.9434668 68.14819336 -101.9434668 68.14819336 -101.43945312 67.08789062 C-100.63127749 65.38955052 -99.81631623 63.69444231 -99 62 C-105.41655071 63.35518377 -105.41655071 63.35518377 -111 66.625 C-112.485 67.800625 -112.485 67.800625 -114 69 C-114.33 68.01 -114.66 67.02 -115 66 C-111.58247498 59.95657473 -105.16219035 55.76193057 -99.6875 51.75 C-98.36190063 50.76894287 -98.36190063 50.76894287 -97.00952148 49.76806641 C-88.89179709 43.81618556 -80.54503483 38.31333007 -72 33 C-71.18950195 32.49259277 -70.37900391 31.98518555 -69.54394531 31.46240234 C-63.38384135 27.60677242 -57.20009726 23.79094876 -51 20 C-50.1018457 19.45069824 -49.20369141 18.90139648 -48.27832031 18.33544922 C-45.62649696 16.71786566 -42.97047778 15.10744729 -40.3125 13.5 C-39.52383545 13.01990479 -38.7351709 12.53980957 -37.92260742 12.04516602 C-32.41780875 8.7343721 -26.78433653 5.79158761 -21 3 C-19.97096558 2.50270386 -19.97096558 2.50270386 -18.92114258 1.99536133 C-12.88126349 -0.81916619 -6.52629364 -0.2686127 0 0 Z " fill="#C6C2C5" transform="translate(255,139)"/>
<path d="M0 0 C-1.34071993 8.44653555 -4.72572116 13.60785063 -9.7734375 20.37890625 C-15.57774026 28.67981958 -17.62976484 37.31217652 -20 47 C-20.77063453 50.06036158 -21.54953315 53.11839407 -22.33569336 56.17480469 C-22.85132883 58.18375746 -23.35900995 60.19477327 -23.85766602 62.20800781 C-25.11535122 67.16291697 -26.47424663 71.54630471 -29 76 C-30.80859375 75.890625 -30.80859375 75.890625 -33 75 C-34.59765625 72.296875 -34.59765625 72.296875 -36.0625 68.75 C-36.44656006 67.8206665 -36.44656006 67.8206665 -36.83837891 66.87255859 C-39.27481026 60.75123805 -40.77527089 54.46742918 -42 48 C-41.38125 47.731875 -40.7625 47.46375 -40.125 47.1875 C-37.7004767 46.04443152 -37.7004767 46.04443152 -36 43 C-35.70491377 40.55078432 -35.62313262 38.13275191 -35.5390625 35.66796875 C-34.33337926 29.70071042 -29.96434622 25.79092401 -25.6875 21.75 C-21.32520191 17.55149645 -17.89189383 13.14157076 -14.55859375 8.09765625 C-12.37088094 5.15329089 -10.20269507 3.74692458 -7 2 C-4 0 -4 0 0 0 Z " fill="#7C7479" transform="translate(187,210)"/>
<path d="M0 0 C3.25207891 1.37981562 4.90586065 2.81386758 6.953125 5.67578125 C7.48583008 6.41425293 8.01853516 7.15272461 8.56738281 7.91357422 C9.12264648 8.70521973 9.67791016 9.49686523 10.25 10.3125 C10.8284668 11.12992676 11.40693359 11.94735352 12.00292969 12.78955078 C13.68373425 15.18298265 15.34635634 17.58774211 17 20 C17.40863281 20.59312988 17.81726563 21.18625977 18.23828125 21.79736328 C30.69231881 40.13310313 39.60033664 61.52843412 37 84 C36.11002486 87.33009478 35.07102623 90.22603421 33 93 C32.01 93.495 32.01 93.495 31 94 C29.72190192 91.44380384 29.59714715 89.22800333 29.2734375 86.3828125 C27.86196564 74.82759506 26.41867976 63.57212408 22.5 52.5625 C22.21560059 51.76021973 21.93120117 50.95793945 21.63818359 50.13134766 C19.47779025 44.45277529 17.06003103 40.35962048 11.875 36.9375 C8.03942086 33.85567895 8.17564563 30.12076124 7.62890625 25.46484375 C6.66285084 20.14253847 4.50397014 15.47971672 2.33984375 10.54296875 C0.95500641 6.88102278 0.40101191 3.86654693 0 0 Z " fill="#8C8689" transform="translate(300,173)"/>
<path d="M0 0 C-1.38685223 3.1195572 -3.00189491 5.25855799 -5.40625 7.671875 C-6.06753906 8.33574219 -6.72882813 8.99960938 -7.41015625 9.68359375 C-8.09980469 10.36550781 -8.78945312 11.04742187 -9.5 11.75 C-10.18964844 12.44738281 -10.87929687 13.14476562 -11.58984375 13.86328125 C-12.25113281 14.52199219 -12.91242188 15.18070313 -13.59375 15.859375 C-14.19896484 16.46233398 -14.80417969 17.06529297 -15.42773438 17.68652344 C-17 19 -17 19 -19 19 C-19 19.66 -19 20.32 -19 21 C-19.66 20.67 -20.32 20.34 -21 20 C-16.78219909 14.95052004 -12.30966492 10.17768642 -7.6875 5.5 C-7.15995117 4.95956055 -6.63240234 4.41912109 -6.08886719 3.86230469 C-2.23649769 0 -2.23649769 0 0 0 Z " fill="#905B30" transform="translate(164,130)"/>
<path d="M0 0 C0.99 0 1.98 0 3 0 C2.58578031 4.83256305 0.53586014 6.82679218 -3 10 C-2.39009109 6.44219804 -1.4216319 3.3171411 0 0 Z " fill="#BEBABD" transform="translate(151,211)"/>
</svg>
